<svg width="33" height="33" viewBox="0 0 33 33" fill="none" xmlns="http://www.w3.org/2000/svg">
<path fill-rule="evenodd" clip-rule="evenodd" d="M9.12071 24.2583V25.1218C9.12071 25.5375 8.79837 25.8893 8.41749 25.8893H5.37031C4.9894 25.8893 4.69635 25.5375 4.69635 25.1218C4.69635 22.8831 4.69635 20.6445 4.72563 18.4059C4.75491 15.7196 5.78049 14.952 5.98556 14.6961H4.75489C4.52052 14.6961 4.31543 14.4722 4.31543 14.2164V13.6088C4.31543 13.353 4.60849 13.0972 4.84285 13.0651L6.9817 12.7452L8.38805 9.867C8.5053 9.67511 9.26707 8.7797 10.2047 8.61979C13.8085 8.01215 17.7056 8.01215 21.3386 8.61979C22.2469 8.77972 23.0087 9.67511 23.1259 9.867L24.5617 12.7452L26.7005 13.0651C26.9349 13.097 27.2279 13.3528 27.2279 13.6088V14.2164C27.2279 14.4722 27.0229 14.6961 26.7885 14.6961H25.5285C25.7629 14.9519 26.7885 15.7195 26.8178 18.4059C26.8178 20.6445 26.8471 22.8831 26.8471 25.1218C26.8471 25.5375 26.5247 25.8893 26.1731 25.8893H23.0967C22.7157 25.8893 22.4227 25.5375 22.4227 25.1218V24.2583C17.9691 24.5461 13.5447 24.5461 9.12061 24.2583H9.12071ZM10.322 9.99526C9.97034 10.0911 9.648 10.2511 9.35507 10.7309C8.94491 11.5943 8.53474 12.4898 8.12441 13.3533H23.4189C23.0087 12.4898 22.5986 11.5943 22.1882 10.7309C21.8952 10.2512 21.573 10.0913 21.2214 9.99526C17.5881 9.5156 13.9548 9.5156 10.3218 9.99526H10.322ZM25.4115 18.8218C24.0052 19.1096 22.628 19.3015 21.2804 19.6213C20.9581 19.8132 20.7237 20.133 20.5186 20.5167C20.4601 20.6767 20.4601 20.9325 20.4893 21.1883C21.8078 20.9644 23.1263 20.7406 24.4156 20.4848C24.855 20.3249 25.1774 19.9732 25.4118 19.4934C25.4703 19.1735 25.4703 18.9497 25.4118 18.8218H25.4115ZM6.13222 18.8218C7.50927 19.1096 8.88648 19.3015 10.2342 19.6213C10.5566 19.8132 10.8202 20.133 11.0253 20.5167C11.0546 20.6767 11.0546 20.9325 11.0253 21.1883C9.70682 20.9644 8.41759 20.7406 7.09907 20.4848C6.6596 20.3249 6.33729 19.9732 6.10289 19.4934C6.07361 19.1735 6.07361 18.9497 6.13217 18.8218H6.13222Z" fill="#828282"/>
</svg>
