<svg width="33" height="33" viewBox="0 0 33 33" fill="none" xmlns="http://www.w3.org/2000/svg">
<path d="M16.4248 16.1367C22.4999 16.1367 27.4248 13.4504 27.4248 10.1367C27.4248 6.82301 22.4999 4.13672 16.4248 4.13672C10.3497 4.13672 5.4248 6.82301 5.4248 10.1367C5.4248 13.4504 10.3497 16.1367 16.4248 16.1367Z" stroke="#333333" stroke-linecap="round" stroke-linejoin="round"/>
<path d="M5.4248 10.1367V16.1367C5.4248 19.4492 10.3498 22.1367 16.4248 22.1367C22.4998 22.1367 27.4248 19.4492 27.4248 16.1367V10.1367" stroke="#333333" stroke-linecap="round" stroke-linejoin="round"/>
<path d="M5.4248 16.1367V22.1367C5.4248 25.4492 10.3498 28.1367 16.4248 28.1367C22.4998 28.1367 27.4248 25.4492 27.4248 22.1367V16.1367" stroke="#333333" stroke-linecap="round" stroke-linejoin="round"/>
</svg>
