<svg width="19" height="19" viewBox="0 0 19 19" fill="none" xmlns="http://www.w3.org/2000/svg">
<g clip-path="url(#clip0_1042_69753)">
<rect width="17.7974" height="17.7974" transform="translate(0.833984 0.949219)" fill="#1877F2"/>
<path d="M18.2599 9.89991C18.2599 5.19008 14.4418 1.37201 9.73201 1.37201C5.02217 1.37201 1.2041 5.19008 1.2041 9.89991C1.2041 14.1564 4.32263 17.6845 8.39952 18.3242V12.365H6.23423V9.89991H8.39952V8.02111C8.39952 5.8838 9.67268 4.70322 11.6206 4.70322C12.5537 4.70322 13.5296 4.86978 13.5296 4.86978V6.96845H12.4542C11.3949 6.96845 11.0645 7.62581 11.0645 8.30022V9.89991H13.4297L13.0516 12.365H11.0645V18.3242C15.1414 17.6845 18.2599 14.1564 18.2599 9.89991Z" fill="white"/>
</g>
<defs>
<clipPath id="clip0_1042_69753">
<rect width="17.7974" height="17.7974" fill="white" transform="translate(0.833984 0.949219)"/>
</clipPath>
</defs>
</svg>
