<svg width="19" height="19" viewBox="0 0 19 19" fill="none" xmlns="http://www.w3.org/2000/svg">
<rect width="17.7974" height="17.7974" transform="translate(0.833984 0.949219)" fill="white"/>
<path fill-rule="evenodd" clip-rule="evenodd" d="M17.9202 10.0412C17.9202 9.43651 17.8659 8.85506 17.7651 8.29688H9.7334V11.5956H14.323C14.1253 12.6616 13.5244 13.5648 12.6213 14.1695V16.3092H15.3773C16.9899 14.8246 17.9202 12.6384 17.9202 10.0412Z" fill="#4285F4"/>
<path fill-rule="evenodd" clip-rule="evenodd" d="M9.73315 18.3764C12.0357 18.3764 13.9661 17.6127 15.3771 16.3103L12.621 14.1705C11.8574 14.6822 10.8805 14.9846 9.73315 14.9846C7.51202 14.9846 5.632 13.4844 4.9614 11.4688H2.1123V13.6783C3.51553 16.4653 6.39952 18.3764 9.73315 18.3764Z" fill="#34A853"/>
<path fill-rule="evenodd" clip-rule="evenodd" d="M4.96123 11.4696C4.79067 10.958 4.69377 10.4114 4.69377 9.84934C4.69377 9.28727 4.79067 8.74071 4.96123 8.22903V6.01953H2.11214C1.53457 7.1708 1.20508 8.47324 1.20508 9.84934C1.20508 11.2254 1.53457 12.5279 2.11214 13.6791L4.96123 11.4696Z" fill="#FBBC05"/>
<path fill-rule="evenodd" clip-rule="evenodd" d="M9.73315 4.71209C10.9852 4.71209 12.1093 5.14236 12.9931 5.9874L15.4391 3.54144C13.9622 2.16535 12.0318 1.32031 9.73315 1.32031C6.39952 1.32031 3.51553 3.23134 2.1123 6.01841L4.9614 8.22791C5.632 6.21223 7.51202 4.71209 9.73315 4.71209Z" fill="#EA4335"/>
</svg>
