<svg width="33" height="33" viewBox="0 0 33 33" fill="none" xmlns="http://www.w3.org/2000/svg">
<path d="M23.0193 27.0747C22.0423 27.3068 21.119 27.5263 20.0042 27.3557C19.5998 27.2947 19.2022 27.1837 18.7799 27.0673C18.1535 26.8928 17.5051 26.7136 16.7912 26.6865C16.0499 26.6577 15.3222 26.7194 14.4986 26.8811C14.0675 26.9656 13.6533 27.0928 13.2521 27.215C12.6635 27.3944 12.1085 27.5633 11.5527 27.5916C10.8494 27.6285 10.1818 27.4273 9.47604 27.215C9.22103 27.1378 8.96355 27.061 8.70043 26.9927C7.0228 26.558 5.47428 26.6501 4.19141 27.2509V28.6173C4.29482 28.612 4.39841 28.5903 4.49391 28.5358C5.54631 27.9366 6.84688 27.8316 8.3592 28.2235C8.60595 28.2872 8.84724 28.3591 9.08641 28.4301C9.80623 28.647 10.5486 28.8693 11.3907 28.8693C11.4665 28.8693 11.543 28.8668 11.6204 28.864C12.3456 28.8287 13.0092 28.6257 13.6515 28.4305C14.0366 28.3132 14.4003 28.2027 14.7635 28.1301C15.4788 27.9889 16.1068 27.934 16.7383 27.96C17.2951 27.9818 17.8403 28.1336 18.4174 28.2935C18.8581 28.4154 19.3139 28.5425 19.7988 28.616C21.1766 28.8269 22.2753 28.5664 23.3363 28.3134C24.4201 28.0552 25.4436 27.8121 26.714 28.1347C27.0394 28.217 27.7045 28.4855 28.1431 28.6619L28.2814 28.7184L28.2817 27.3369C27.8489 27.1644 27.3682 26.9818 27.0496 26.9013C25.4532 26.4957 24.2158 26.7906 23.0193 27.0747H23.0193Z" fill="#828282"/>
<path d="M16.8716 18.3446H16.7066L16.7328 14.4591V14.4461C17.2367 14.5287 17.5485 14.8651 17.8997 15.4037C18.0063 15.5679 18.2439 15.6181 18.4076 15.5111C18.4901 15.4577 18.5466 15.3752 18.5668 15.279C18.5869 15.183 18.5686 15.085 18.5151 15.0027C18.258 14.6086 17.9616 14.2183 17.5359 13.9674C18.0705 13.8824 18.6303 14.0804 18.9866 14.4897C19.1141 14.636 19.3568 14.6542 19.5054 14.5254C19.6577 14.3925 19.6737 14.1601 19.5411 14.0071C19.1007 13.5018 18.4623 13.2122 17.7893 13.2122C17.6125 13.2122 17.439 13.2315 17.27 13.2702C17.5568 13.0152 17.9281 12.8705 18.3215 12.8705C18.5241 12.8705 18.6889 12.7057 18.6889 12.5031C18.6889 12.3005 18.5241 12.1357 18.3215 12.1357C17.7339 12.1357 17.1773 12.3559 16.7508 12.7486V12.2268C16.7508 12.0243 16.586 11.8594 16.3834 11.8594C16.1809 11.8594 16.016 12.0242 16.016 12.2268V12.782C15.5858 12.368 15.0163 12.1358 14.4096 12.1358C14.2071 12.1358 14.0425 12.3006 14.0425 12.5029C14.0425 12.7053 14.2073 12.8703 14.4096 12.8703C14.7778 12.8703 15.1336 13.0013 15.415 13.2326C15.3107 13.2183 15.205 13.2111 15.0988 13.2111C14.4257 13.2111 13.7873 13.5011 13.3466 14.0069C13.214 14.1596 13.23 14.3921 13.3825 14.5252C13.5298 14.6536 13.7733 14.6365 13.9008 14.4895C14.2351 14.1061 14.7444 13.9056 15.2504 13.9537C14.8118 14.2034 14.5084 14.6 14.2462 15.0026C14.1354 15.1721 14.1832 15.4002 14.3533 15.5117C14.5188 15.6181 14.7543 15.5676 14.8614 15.4041C15.2061 14.8754 15.511 14.5428 15.998 14.4519V14.46L16.0242 18.3441L15.5998 18.344C10.8675 18.5079 7.10315 20.4738 6.9082 22.9124C7.4849 22.9293 8.08303 23.0099 8.70191 23.1706C8.96466 23.2388 9.22197 23.3146 9.47716 23.3913C9.90276 23.5197 10.3145 23.6428 10.7283 23.7132C11.0009 23.7599 11.2746 23.7837 11.5538 23.77C11.7107 23.7615 11.8672 23.7408 12.0245 23.7132C12.4254 23.6437 12.8306 23.522 13.2533 23.3924C13.6544 23.2705 14.0686 23.1432 14.4997 23.0584C15.3227 22.8968 16.0512 22.8347 16.792 22.8634C17.5067 22.8906 18.1549 23.07 18.7809 23.2445C19.2023 23.3611 19.6008 23.4715 20.0051 23.5336C21.1196 23.7037 22.0429 23.4845 23.0199 23.2524C23.818 23.0624 24.6351 22.869 25.5633 22.8815C25.3382 20.4568 21.5842 18.5069 16.8716 18.3445L16.8716 18.3446Z" fill="#828282"/>
<path d="M27.0473 24.3512C26.665 24.2543 26.3039 24.1971 25.9596 24.1713C25.8252 24.1609 25.6926 24.1555 25.5626 24.1541C24.6346 24.1416 23.8173 24.335 23.019 24.525C22.0421 24.7571 21.1187 24.9762 20.0044 24.8062C19.6001 24.7441 19.2021 24.6333 18.7802 24.5167C18.1538 24.3426 17.5054 24.163 16.7915 24.1356C16.0502 24.1071 15.3224 24.1692 14.4988 24.3308C14.0678 24.4154 13.6536 24.5426 13.2524 24.6648C12.8298 24.7941 12.4246 24.9151 12.0236 24.9852C11.8662 25.012 11.7097 25.0331 11.553 25.042C11.2737 25.0566 11.0001 25.0322 10.7274 24.9852C10.3135 24.9158 9.90191 24.7919 9.47631 24.6634C9.2213 24.5867 8.96382 24.5102 8.7007 24.4427C8.08182 24.2823 7.48333 24.2021 6.907 24.1845C6.83067 24.1824 6.75346 24.1778 6.67819 24.1778C5.77756 24.179 4.93847 24.3512 4.19141 24.7012V26.067C4.29482 26.0619 4.39841 26.0403 4.4939 25.9861C5.25155 25.555 6.13935 25.3841 7.14039 25.4656C7.53011 25.4974 7.93531 25.564 8.35915 25.6733C8.6059 25.7369 8.8472 25.8097 9.08636 25.881C9.80618 26.0968 10.5486 26.3189 11.3906 26.3189C11.4664 26.3189 11.5429 26.3171 11.6203 26.3136C12.3456 26.2774 13.0092 26.0746 13.6514 25.8801C14.0366 25.7622 14.4003 25.652 14.7634 25.5797C15.4787 25.4367 16.1067 25.3834 16.7383 25.4091C17.2951 25.4314 17.8403 25.5827 18.4177 25.7424C18.858 25.8642 19.3141 25.9916 19.799 26.0651C21.1768 26.276 22.2754 26.016 23.3364 25.7626C24.0056 25.6034 24.6521 25.4508 25.3468 25.433C25.7775 25.4216 26.2275 25.4604 26.7134 25.5843C27.0388 25.6667 27.7039 25.9348 28.1425 26.1117L28.2808 26.168V24.7872C27.8462 24.6142 27.3661 24.4309 27.0472 24.3512L27.0473 24.3512Z" fill="#828282"/>
<path d="M11.7745 7.91538L10.2305 7.91714L7.40395 5.18498C6.77291 4.57505 6.19202 5.41361 6.60583 6.01033L8.03724 7.92065L5.30877 7.92381L4.93311 7.53989C4.1883 6.7673 4.16385 7.58984 4.17826 8.20434V8.7949C4.17826 9.424 4.84603 9.43368 5.18177 9.443L8.01784 9.44582L6.60579 11.3299C6.19215 11.9268 6.77287 12.7654 7.40391 12.1553L10.2046 9.44775L11.8948 9.44951C13.9711 9.44969 12.8554 7.91541 11.7745 7.91541L11.7745 7.91538Z" fill="#828282"/>
<path d="M23.9925 11.6729C23.9925 11.1849 24.7707 11.1849 24.7707 11.6729V12.2269C24.7707 12.7544 23.9925 12.7414 23.9925 12.2269V11.6729Z" fill="#828282"/>
<path d="M22.2649 8.66637C22.2649 7.53202 23.2148 6.58267 24.3486 6.58267C25.5222 6.58267 26.4188 7.50564 26.4189 8.66637C26.4189 9.78716 25.5222 10.7367 24.3486 10.7367C23.2145 10.7367 22.2649 9.78721 22.2649 8.66637Z" fill="#828282"/>
<path d="M23.9925 5.09233C23.9925 4.60464 24.7707 4.60464 24.7707 5.09233V5.64597C24.7707 6.17377 23.9925 6.1604 23.9925 5.64597V5.09233Z" fill="#828282"/>
<path d="M21.3291 8.24446C21.8172 8.24446 21.8172 9.02232 21.3291 9.02232H20.7755C20.248 9.02232 20.2611 8.24446 20.7755 8.24446H21.3291Z" fill="#828282"/>
<path d="M27.9092 8.24446C28.3972 8.24446 28.3972 9.02232 27.9092 9.02232H27.3552C26.8278 9.02232 26.8408 8.24446 27.3552 8.24446H27.9092Z" fill="#828282"/>
<path d="M22.4632 6.26607C22.8058 6.60903 22.2652 7.16302 21.909 6.82008L21.527 6.42436C21.1445 6.05538 21.7117 5.51458 22.0677 5.88373L22.4632 6.26607Z" fill="#828282"/>
<path d="M27.1179 10.9214C27.4607 11.2644 26.907 11.818 26.5639 11.4754L26.1818 11.0792C25.7991 10.7104 26.3664 10.1696 26.7224 10.5255L27.1179 10.9214Z" fill="#828282"/>
<path d="M26.7751 6.80724C26.4325 7.15 25.8786 6.60938 26.2215 6.25324L26.617 5.87055C26.9862 5.5014 27.527 6.05575 27.171 6.42455L26.7751 6.80724Z" fill="#828282"/>
<path d="M22.1206 11.4618C21.7776 11.8047 21.2237 11.2643 21.5666 10.9081L21.9621 10.5253C22.3313 10.1431 22.8721 10.7103 22.5161 11.0659L22.1206 11.4618Z" fill="#828282"/>
</svg>
