<svg width="25" height="25" viewBox="0 0 25 25" fill="none" xmlns="http://www.w3.org/2000/svg">
<path d="M24.04 23.1367H0.960771C0.693757 23.1367 0.475586 23.3549 0.475586 23.6219C0.475586 23.8889 0.693771 24.1071 0.960771 24.1071H24.04C24.307 24.1071 24.5252 23.8889 24.5252 23.6219C24.5253 23.3549 24.3071 23.1367 24.0401 23.1367H24.04Z" fill="#828282"/>
<path d="M8.53598 2.96138H16.4723C16.7543 2.96138 16.98 2.73194 16.98 2.45368V0.542861C16.98 0.264592 16.7505 0.0351562 16.4685 0.0351562H8.53217C8.25008 0.0351562 8.02446 0.264596 8.02446 0.542861V2.4461C8.02065 2.73199 8.25009 2.96143 8.53598 2.96143V2.96138Z" fill="#828282"/>
<path d="M21.7946 20.9304V22.1717H22.765V20.9304C23.5699 20.7348 24.1641 20.0878 24.1641 19.3093C24.1641 18.3727 23.3215 15.4766 22.2798 15.4766C21.2379 15.4766 20.3916 18.3727 20.3916 19.3093C20.3878 20.088 20.9859 20.7388 21.7946 20.9304H21.7946Z" fill="#828282"/>
<path d="M2.31421 20.9304V22.1717H3.28462V20.9304C4.08947 20.7348 4.69137 20.0878 4.69137 19.3093C4.69137 18.3727 3.84512 15.4766 2.8032 15.4766C1.76129 15.4767 0.915039 18.3729 0.915039 19.3095C0.915039 20.088 1.50932 20.7388 2.31416 20.9304H2.31421Z" fill="#828282"/>
<path d="M4.41699 21.0077V22.17H8.66725V14.6136H12.0524V22.17H13.0228V14.6136H16.4155V22.17H20.6658V21.0077C19.921 20.5264 19.4246 19.7289 19.4246 18.8224C19.4246 18.2695 19.782 16.261 20.6658 15.0236V3.98784C20.6658 2.85952 19.7555 1.94922 18.6272 1.94922H17.9539V2.45329C17.9539 3.26576 17.2919 3.93141 16.4758 3.93141H8.53949C7.71958 3.93141 7.05756 3.26939 7.05756 2.44948L7.05739 1.94922H6.46311C5.33479 1.94922 4.42449 2.85952 4.42449 3.98784V15.0236C5.30088 16.2574 5.66571 18.2696 5.66571 18.8224C5.65826 19.7289 5.16182 20.5264 4.41704 21.0079L4.41699 21.0077ZM6.97475 5.09749H18.1005V7.20385H6.97475V5.09749ZM6.97475 9.69001H18.1005V11.7964H6.97475V9.69001Z" fill="#828282"/>
</svg>
