<svg width="19" height="15" viewBox="0 0 19 15" fill="none" xmlns="http://www.w3.org/2000/svg">
<path d="M16.6784 2.51439V0.869316C16.6784 0.691237 16.4595 0.546875 16.1895 0.546875H3.47722C3.20718 0.546875 2.98828 0.691237 2.98828 0.869316V2.51439" stroke="#4F4F4F" stroke-miterlimit="10"/>
<path d="M17.7899 4.45703H1.87764C1.53963 4.45703 1.26562 4.73104 1.26562 5.06904V13.6372C1.26562 13.9752 1.53963 14.2492 1.87764 14.2492H17.7899C18.1279 14.2492 18.4019 13.9752 18.4019 13.6372V5.06904C18.4019 4.73104 18.1279 4.45703 17.7899 4.45703Z" stroke="#4F4F4F" stroke-miterlimit="10"/>
<path d="M9.83379 11.8023C11.1858 11.8023 12.2818 10.7063 12.2818 9.35429C12.2818 8.00228 11.1858 6.90625 9.83379 6.90625C8.48177 6.90625 7.38574 8.00228 7.38574 9.35429C7.38574 10.7063 8.48177 11.8023 9.83379 11.8023Z" stroke="#4F4F4F" stroke-miterlimit="10"/>
<path d="M13.5059 4.45703L18.4019 8.74111" stroke="#4F4F4F" stroke-miterlimit="10"/>
<path d="M13.5059 14.2489L18.4019 9.96484" stroke="#4F4F4F" stroke-miterlimit="10"/>
<path d="M6.16171 4.45703L1.26562 8.74111" stroke="#4F4F4F" stroke-miterlimit="10"/>
<path d="M6.16171 14.2489L1.26562 9.96484" stroke="#4F4F4F" stroke-miterlimit="10"/>
</svg>
