<svg width="30" height="24" viewBox="0 0 30 24" fill="none" xmlns="http://www.w3.org/2000/svg">
<path d="M26.6621 4.01953V1.33154C26.6621 1.04057 26.3044 0.804688 25.8632 0.804688H5.09187C4.65065 0.804688 4.29297 1.04057 4.29297 1.33154V4.01953" stroke="#333333" stroke-linecap="round" stroke-linejoin="round"/>
<path d="M28.4766 7.19531H2.47656C1.92428 7.19531 1.47656 7.64303 1.47656 8.19531V22.1953C1.47656 22.7476 1.92428 23.1953 2.47656 23.1953H28.4766C29.0288 23.1953 29.4766 22.7476 29.4766 22.1953V8.19531C29.4766 7.64303 29.0288 7.19531 28.4766 7.19531Z" stroke="#333333" stroke-linecap="round" stroke-linejoin="round"/>
<path d="M15.4766 19.1953C17.6857 19.1953 19.4766 17.4045 19.4766 15.1953C19.4766 12.9862 17.6857 11.1953 15.4766 11.1953C13.2674 11.1953 11.4766 12.9862 11.4766 15.1953C11.4766 17.4045 13.2674 19.1953 15.4766 19.1953Z" stroke="#333333" stroke-linecap="round" stroke-linejoin="round"/>
<path d="M21.4766 7.19531L29.4766 14.1953" stroke="#333333" stroke-linecap="round" stroke-linejoin="round"/>
<path d="M21.4766 23.1953L29.4766 16.1953" stroke="#333333" stroke-linecap="round" stroke-linejoin="round"/>
<path d="M9.47656 7.19531L1.47656 14.1953" stroke="#333333" stroke-linecap="round" stroke-linejoin="round"/>
<path d="M9.47656 23.1953L1.47656 16.1953" stroke="#333333" stroke-linecap="round" stroke-linejoin="round"/>
</svg>
