<svg width="21" height="17" viewBox="0 0 21 17" fill="none" xmlns="http://www.w3.org/2000/svg">
<path d="M8.74192 13.1639H1.96317C1.6036 13.1639 1.25876 13.0211 1.00451 12.7668C0.750259 12.5126 0.607422 12.1678 0.607422 11.8082V5.70731C0.607422 5.34775 0.750259 5.00291 1.00451 4.74865C1.25876 4.4944 1.6036 4.35156 1.96317 4.35156H8.74192" stroke="#333333" stroke-linecap="round" stroke-linejoin="round"/>
<path d="M8.74352 15.875H4.67627" stroke="#333333" stroke-linecap="round" stroke-linejoin="round"/>
<path d="M16.8775 3.67188H14.166" stroke="#333333" stroke-linecap="round" stroke-linejoin="round"/>
<path d="M16.8775 6.38672H14.166" stroke="#333333" stroke-linecap="round" stroke-linejoin="round"/>
<path d="M18.9112 0.960938H12.1325C11.7581 0.960938 11.4546 1.26443 11.4546 1.63881V15.1963C11.4546 15.5707 11.7581 15.8742 12.1325 15.8742H18.9112C19.2856 15.8742 19.5891 15.5707 19.5891 15.1963V1.63881C19.5891 1.26443 19.2856 0.960938 18.9112 0.960938Z" stroke="#333333" stroke-linecap="round" stroke-linejoin="round"/>
<path d="M6.70996 13.1641V15.8756" stroke="#333333" stroke-linecap="round" stroke-linejoin="round"/>
<path d="M15.5227 13.8422C16.0842 13.8422 16.5395 13.387 16.5395 12.8254C16.5395 12.2638 16.0842 11.8086 15.5227 11.8086C14.9611 11.8086 14.5059 12.2638 14.5059 12.8254C14.5059 13.387 14.9611 13.8422 15.5227 13.8422Z" fill="#333333"/>
</svg>
