<svg width="17" height="17" viewBox="0 0 17 17" fill="none" xmlns="http://www.w3.org/2000/svg">
<path d="M8.4375 16.9766C4.0275 16.9766 0.4375 13.3866 0.4375 8.97656C0.4375 4.56656 4.0275 0.976562 8.4375 0.976562C12.8475 0.976562 16.4375 4.56656 16.4375 8.97656C16.4375 13.3866 12.8475 16.9766 8.4375 16.9766ZM8.4375 2.13656C4.66493 2.13656 1.5975 5.20399 1.5975 8.97656C1.5975 12.7491 4.66493 15.8166 8.4375 15.8166C12.2101 15.8166 15.2775 12.7491 15.2775 8.97656C15.2775 5.20399 12.2101 2.13656 8.4375 2.13656Z" fill="#333333"/>
<path d="M12.9618 15.4419C12.7068 15.4419 12.4719 15.2719 12.4018 15.0145C12.2167 14.332 11.8518 13.7019 11.3443 13.1969C10.5668 12.4195 9.53424 11.9919 8.43687 11.9919C6.58687 11.9919 4.95687 13.2344 4.47202 15.0145C4.38697 15.3245 4.06956 15.5044 3.7595 15.422C3.44944 15.3369 3.26956 15.0195 3.35202 14.7095C3.9769 12.427 6.06696 10.832 8.43687 10.832C9.84436 10.832 11.1694 11.3796 12.1643 12.377C12.8118 13.0245 13.2818 13.832 13.5193 14.7095C13.6044 15.0195 13.4218 15.3369 13.1118 15.422C13.0618 15.4346 13.0118 15.4421 12.9618 15.4421V15.4419Z" fill="#333333"/>
<path d="M8.43869 9.57659C6.77617 9.57659 5.42383 8.22413 5.42383 6.56173C5.42383 4.89933 6.77629 3.54688 8.43869 3.54688C10.1011 3.54688 11.4535 4.89933 11.4535 6.56173C11.4535 8.22413 10.1011 9.57659 8.43869 9.57659ZM8.43869 4.70659C7.41614 4.70659 6.58366 5.53907 6.58366 6.56162C6.58366 7.58416 7.41614 8.41665 8.43869 8.41665C9.46123 8.41665 10.2937 7.58416 10.2937 6.56162C10.2937 5.53919 9.46123 4.70659 8.43869 4.70659Z" fill="#333333"/>
</svg>
