<svg width="33" height="33" viewBox="0 0 33 33" fill="none" xmlns="http://www.w3.org/2000/svg">
<path d="M24.0723 15.8174C24.4379 15.8164 24.7884 15.6687 25.047 15.4064C25.3056 15.1441 25.4512 14.7885 25.4521 14.4176V13.1977C25.4521 13.0984 25.4133 13.0032 25.3441 12.933C25.2749 12.8628 25.1811 12.8234 25.0832 12.8234H23.899C23.8218 12.2749 23.6858 11.7364 23.4932 11.2178C23.7454 11.1126 23.961 10.9336 24.1126 10.7037C24.2645 10.4738 24.3454 10.2033 24.3454 9.92664V8.70668C24.3454 8.60744 24.3065 8.5122 24.2373 8.44203C24.1681 8.37186 24.0743 8.33243 23.9764 8.33243H21.6486C20.7497 7.43757 19.6491 6.77864 18.4426 6.41256V5.26097C18.4426 5.16172 18.4037 5.06649 18.3345 4.99632C18.2654 4.92615 18.1715 4.88672 18.0736 4.88672H14.3844C14.1807 4.88672 14.0155 5.0543 14.0155 5.26097V6.41256C12.8094 6.77995 11.7092 7.43873 10.8095 8.33243H8.48161C8.27788 8.33243 8.11268 8.50001 8.11268 8.70668V9.92664C8.11268 10.2033 8.19355 10.4738 8.3454 10.7037C8.49709 10.9336 8.71268 11.1125 8.96481 11.2178C8.77228 11.7364 8.63624 12.2749 8.559 12.8234H7.37481C7.17108 12.8234 7.00589 12.991 7.00589 13.1977V14.4176C7.00688 14.7885 7.15247 15.144 7.41105 15.4064C7.66962 15.6687 8.02009 15.8164 8.38573 15.8174H8.70293C8.82201 16.3336 8.99511 16.8355 9.21943 17.3144H8.48158C8.27785 17.3144 8.11265 17.4819 8.11265 17.6886V18.9086C8.11364 19.2795 8.25924 19.635 8.51781 19.8973C8.77639 20.1596 9.12685 20.3073 9.49249 20.3083H11.1601C11.3068 20.3078 11.4524 20.2839 11.5916 20.2371C11.9248 20.4933 12.279 20.72 12.6504 20.9146L10.0347 26.6704H8.85048C8.36131 26.6704 7.89212 26.8675 7.54605 27.2184C7.20018 27.5694 7.00586 28.0454 7.00586 28.5416C7.00586 28.6408 7.04473 28.7361 7.1139 28.8063C7.18307 28.8764 7.27695 28.9159 7.37478 28.9159H25.0832C25.181 28.9159 25.2749 28.8764 25.344 28.8063C25.4132 28.7361 25.4521 28.6408 25.4521 28.5416C25.4521 28.0454 25.2577 27.5694 24.9119 27.2184C24.5659 26.8675 24.0966 26.6704 23.6075 26.6704H22.4233L19.8075 20.9146C20.1794 20.7213 20.5325 20.4933 20.8626 20.2335C21.0026 20.2831 21.1498 20.3083 21.298 20.3083H22.9656C23.3312 20.3073 23.6815 20.1596 23.9401 19.8973C24.1987 19.635 24.3443 19.2795 24.3453 18.9086V17.6886C24.3453 17.5894 24.3064 17.4941 24.2372 17.424C24.1681 17.3538 24.0742 17.3144 23.9764 17.3144H23.2385C23.4679 16.836 23.646 16.3341 23.7698 15.8174L24.0723 15.8174ZM21.394 12.8234C21.1903 12.8234 21.0251 12.991 21.0251 13.1976L21.0253 13.7548L18.4093 13.5719C18.3591 13.2387 18.2328 12.9223 18.0404 12.6475L20.0769 10.5779C20.1937 10.8039 20.3691 10.9932 20.5844 11.1252C20.7998 11.2572 21.0465 11.3267 21.2982 11.3264H22.748C22.9378 11.8083 23.0726 12.3105 23.1501 12.8234L21.394 12.8234ZM15.6497 16.1092C15.7186 16.1308 15.7889 16.147 15.8601 16.1579L16.1957 19.9341L14.3844 19.9341C14.1806 19.9341 14.0154 20.1017 14.0154 20.3083V20.6826C13.8863 20.6415 13.7608 20.5965 13.6465 20.5441L15.6497 16.1092ZM18.0736 19.9341H16.307L16.5979 16.1579C16.6694 16.1488 16.7399 16.1326 16.8082 16.1093L18.8115 20.5515C18.6823 20.6039 18.5568 20.6487 18.4425 20.69V20.3082C18.4425 20.209 18.4037 20.1137 18.3345 20.0436C18.2653 19.9734 18.1714 19.9341 18.0736 19.9341ZM20.5233 8.33241H20.2872C20.0834 8.33241 19.9182 8.49998 19.9182 8.70665L20.0769 10.5779L17.5092 12.116C17.2383 11.921 16.9263 11.7929 16.5979 11.7417L16.2328 8.44199L17.0627 8.44197C17.4283 8.44097 17.7788 8.29327 18.0374 8.03096C18.2959 7.76866 18.4415 7.58058 18.4425 7.20967C19.1942 7.46078 19.898 7.84054 20.5233 8.33241ZM14.0155 7.20966C14.0155 7.20966 14.0116 6.85212 14.0155 7.22103C14.0195 7.58993 14.1664 7.775 14.4246 8.03496C14.6829 8.29476 15.0316 8.44096 15.3953 8.44196L16.2328 8.44199L15.8601 11.7344C15.5317 11.7853 15.2197 11.9135 14.9488 12.1086L12.5398 9.67216V8.70664C12.5398 8.6074 12.5009 8.51217 12.4317 8.44199C12.3626 8.37182 12.2687 8.33239 12.1709 8.33239H11.9347C12.5582 7.83753 13.2625 7.45743 14.0155 7.20966ZM9.71028 11.3264H11.1601C11.4118 11.3267 11.6585 11.2572 11.8739 11.1252C12.0892 10.9932 12.423 9.98665 12.5398 9.76059L14.4253 12.6513C14.2331 12.926 14.1066 13.2426 14.0562 13.5756H11.4332V13.1976C11.4332 13.0984 11.3944 13.0032 11.3252 12.933C11.256 12.8628 11.1621 12.8234 11.0643 12.8234H9.3083C9.38571 12.3105 9.52054 11.8083 9.71028 11.3264ZM9.46686 15.8174H10.0535C10.4191 15.8164 10.7694 15.6687 11.028 15.4064C11.2866 15.1441 11.4322 14.7885 11.4332 14.4176V13.6297L14.0489 14.3204C14.0991 14.6535 14.2255 14.97 14.4178 15.2448L12.3334 17.3593C12.284 17.3304 12.228 17.3149 12.171 17.3144H10.0571C9.80428 16.84 9.60637 16.3376 9.46686 15.8174ZM12.9606 20.2335C12.7048 20.1008 12.4584 19.9508 12.2227 19.7844C12.4253 19.5386 12.5375 19.2291 12.5399 18.9086L12.3814 17.3107L14.949 15.7762C14.9569 15.7859 14.9671 15.7936 14.9785 15.7986L12.9606 20.2335ZM21.612 26.6706H19.1807L18.8925 26.6704L18.4052 26.6706C18.4052 26.6706 17.8282 26.6704 17.7304 26.6704L14.4209 26.6706L13.7192 26.6704L13.2779 26.6706H10.8466L13.3221 21.2326C13.5508 21.3262 13.7832 21.4086 14.0156 21.4796V21.5282C14.0166 21.8991 14.1623 22.2546 14.4209 22.5169C14.6795 22.7792 15.03 22.9269 15.3956 22.9279H17.0632C17.4288 22.9269 17.7791 22.7792 18.0377 22.5169C18.2963 22.2546 18.4418 21.8991 18.4428 21.5282V21.4796C18.6752 21.4084 18.9076 21.3262 19.1364 21.2326L21.612 26.6706ZM19.4979 20.2335L17.48 15.8174L17.5133 15.7987L19.993 17.424L19.9185 18.9088C19.9179 19.2279 20.0261 19.5371 20.2247 19.7844C19.9927 19.9503 19.7499 20.1003 19.4979 20.2335ZM22.4013 17.3144H20.2874C20.228 17.3137 20.1693 17.3291 20.1178 17.3593L18.0333 15.2448C18.2255 14.9699 18.3519 14.6535 18.4023 14.3204L21.0253 13.8493V14.4176C21.0262 14.7885 21.1718 15.144 21.4304 15.4063C21.689 15.6687 22.0395 15.8163 22.4051 15.8174H22.9917C22.8522 16.3376 22.6542 16.84 22.4013 17.3144Z" fill="#828282"/>
</svg>
