<svg width="19" height="17" viewBox="0 0 19 17" fill="none" xmlns="http://www.w3.org/2000/svg">
<path d="M6.8672 10.9883C9.0332 10.9883 10.7891 9.23242 10.7891 7.06642C10.7891 4.90042 9.0332 3.14453 6.8672 3.14453C4.7012 3.14453 2.94531 4.90042 2.94531 7.06642C2.94531 9.23242 4.7012 10.9883 6.8672 10.9883Z" stroke="#333333" stroke-width="1.2" stroke-miterlimit="10"/>
<path d="M10.9453 3.28783C11.292 3.1938 11.6495 3.14562 12.0087 3.14453C13.0489 3.14453 14.0464 3.55773 14.7819 4.29323C15.5174 5.02872 15.9306 6.02627 15.9306 7.06642C15.9306 8.10657 15.5174 9.10412 14.7819 9.83962C14.0464 10.5751 13.0489 10.9883 12.0087 10.9883" stroke="#333333" stroke-width="1.2" stroke-linecap="round" stroke-linejoin="round"/>
<path d="M1.4375 13.8093C2.04988 12.9379 2.86298 12.2266 3.80814 11.7356C4.75329 11.2446 5.80273 10.9883 6.86781 10.9883C7.93289 10.9883 8.98233 11.2446 9.92748 11.7356C10.8726 12.2266 11.6857 12.9379 12.2981 13.8093" stroke="#333333" stroke-width="1.2" stroke-linecap="round" stroke-linejoin="round"/>
<path d="M12.0078 10.9883C13.073 10.9876 14.1226 11.2436 15.0679 11.7346C16.0131 12.2256 16.8262 12.9372 17.4381 13.809" stroke="#333333" stroke-width="1.2" stroke-linecap="round" stroke-linejoin="round"/>
</svg>
