<svg width="33" height="33" viewBox="0 0 33 33" fill="none" xmlns="http://www.w3.org/2000/svg">
<path fill-rule="evenodd" clip-rule="evenodd" d="M21.575 22.2367C22.8272 22.62 24.0795 22.7221 25.2807 22.62L25.2808 22.6202C25.9452 22.569 26.3287 23.3613 25.8942 23.8467C23.1085 27.1437 18.5339 28.6515 14.1636 27.297C8.33673 25.508 5.06526 19.3232 6.8799 13.4963C8.25997 9.10024 12.0678 6.18678 16.3359 5.75251C17.0004 5.70135 17.4348 6.44259 17.0004 6.95369C16.2336 7.89925 15.6202 8.99828 15.2369 10.225C13.6779 15.2852 16.5148 20.6522 21.575 22.2367ZM10.0051 12.0588C10.1496 11.8234 10.076 11.5155 9.84069 11.371C9.60537 11.2265 9.29747 11.3002 9.15297 11.5355C7.43956 14.3259 7.35164 18.7176 9.14462 21.8668C9.28125 22.1067 9.58655 22.1905 9.82652 22.0539C10.0665 21.9173 10.1503 21.612 10.0136 21.372C8.39346 18.5264 8.49062 14.5252 10.0051 12.0588Z" fill="#828282"/>
</svg>
