<svg width="16" height="17" viewBox="0 0 16 17" fill="none" xmlns="http://www.w3.org/2000/svg">
<path d="M10.6505 15.4258H2.06907C1.90157 15.4258 1.74092 15.3592 1.62248 15.2408C1.50404 15.1224 1.4375 14.9617 1.4375 14.7942V2.16282C1.4375 1.99532 1.50404 1.83467 1.62248 1.71623C1.74092 1.59779 1.90157 1.53125 2.06907 1.53125H14.7005C14.868 1.53125 15.0286 1.59779 15.147 1.71623C15.2655 1.83467 15.332 1.99532 15.332 2.16282V10.7443C15.3323 10.8263 15.3164 10.9075 15.2853 10.9834C15.2541 11.0593 15.2083 11.1282 15.1505 11.1864L11.0926 15.2442C11.0345 15.302 10.9655 15.3479 10.8897 15.379C10.8138 15.4102 10.7325 15.4261 10.6505 15.4258V15.4258Z" stroke="#333333" stroke-width="1.2" stroke-linecap="round" stroke-linejoin="round"/>
<path d="M4.97266 4.72266L9.79687 9.54687" stroke="#333333" stroke-width="1.2" stroke-linecap="round" stroke-linejoin="round"/>
<path d="M9.79687 4.72266L4.97266 9.54687" stroke="#333333" stroke-width="1.2" stroke-linecap="round" stroke-linejoin="round"/>
<path d="M15.2759 11.0039H10.9102V15.3696" stroke="#333333" stroke-width="1.2" stroke-linecap="round" stroke-linejoin="round"/>
</svg>
