<svg width="33" height="33" viewBox="0 0 33 33" fill="none" xmlns="http://www.w3.org/2000/svg">
<path d="M12.7493 4.21528H12.7492C12.356 4.21878 11.9798 4.37735 11.7026 4.6563L5.0896 11.2689C4.81819 11.5276 4.66032 11.8835 4.65086 12.2584C4.64122 12.6334 4.78069 12.9968 5.03861 13.2691L12.891 21.121V20.0108L5.59347 12.7138C5.36236 12.4538 5.38514 12.0557 5.64446 11.8237L7.27449 10.1936L12.8908 15.8095V14.6995L7.82935 9.6385L10.0723 7.39592L12.8908 10.2144V9.70964C12.8915 9.52759 12.9132 9.34642 12.9558 9.16945L10.6274 6.84101L12.2574 5.21098C12.3869 5.07834 12.5637 5.00247 12.7489 4.99984C12.898 4.99774 13.0415 5.05556 13.1475 5.16016L15.3423 7.35475H16.4525L13.7026 4.60508C13.4496 4.35294 13.1063 4.21242 12.7491 4.21488L12.7493 4.21528Z" fill="#828282"/>
<path fill-rule="evenodd" clip-rule="evenodd" d="M24.6043 16.4878H23.0733C23.0017 17.5631 22.762 18.6171 22.3398 19.3755C23.0323 19.0671 23.6207 18.5646 24.0335 17.9287C24.319 17.4892 24.5121 16.999 24.6043 16.4878ZM24.0335 13.6577C24.3191 14.0973 24.5123 14.5878 24.6044 15.0992H23.0734C23.0018 14.0238 22.7622 12.9695 22.3398 12.2109C23.0323 12.5193 23.6207 13.0218 24.0335 13.6577Z" fill="#828282"/>
<path fill-rule="evenodd" clip-rule="evenodd" d="M22.2874 16.4866H19.1963C19.3275 18.3229 19.9694 19.7169 20.7418 19.7169C21.5141 19.7169 22.1562 18.3229 22.2874 16.4866ZM22.2874 15.098H19.1963C19.3274 13.2614 19.9694 11.8672 20.7418 11.8672C21.5142 11.8672 22.1563 13.2614 22.2874 15.098Z" fill="#828282"/>
<path fill-rule="evenodd" clip-rule="evenodd" d="M18.4099 16.4874C18.4815 17.5628 18.7212 18.617 19.1435 19.3755C18.215 18.9621 17.4833 18.2045 17.1025 17.2622C17.0008 17.0105 16.9263 16.7508 16.8789 16.4874H18.4099ZM18.4099 15.0989C18.4816 14.0235 18.7213 12.9694 19.1435 12.2109C18.215 12.6243 17.4833 13.3819 17.1025 14.3242C17.0008 14.5759 16.9263 14.8355 16.8789 15.0989H18.4099Z" fill="#828282"/>
<path d="M13.6768 9.71056V27.7648C13.6771 28.1811 13.8427 28.5801 14.1371 28.8744C14.4314 29.1688 14.8306 29.3342 15.2467 29.3347H26.2371C26.6534 29.3342 27.0526 29.1688 27.3467 28.8744C27.6411 28.58 27.8067 28.1811 27.8072 27.7648V9.71056C27.8067 9.29425 27.6411 8.89527 27.3467 8.60093C27.0526 8.30657 26.6534 8.14116 26.2371 8.14062H15.2467C14.8306 8.14115 14.4314 8.30655 14.1371 8.60093C13.8427 8.89531 13.6771 9.29426 13.6768 9.71056ZM20.7419 11.0842H20.7417C21.9909 11.0842 23.1888 11.5806 24.0721 12.4639C24.9552 13.3471 25.4513 14.5451 25.4512 15.7942C25.4512 17.0434 24.955 18.2413 24.0717 19.1245C23.1884 20.0077 21.9905 20.5038 20.7414 20.5038C19.4922 20.5038 18.2943 20.0077 17.411 19.1244C16.5278 18.2411 16.0316 17.0432 16.0316 15.794C16.0331 14.5453 16.5299 13.3482 17.4128 12.4651C18.2959 11.5822 19.493 11.0856 20.7417 11.0842H20.7419ZM24.2744 23.2512C24.2744 23.468 24.0987 23.6437 23.8818 23.6437H17.6016C17.3849 23.6437 17.2091 23.468 17.2091 23.2512C17.2091 23.0345 17.3849 22.8587 17.6016 22.8587H23.8818C24.0987 22.8587 24.2744 23.0345 24.2744 23.2512ZM16.3261 24.8212H25.1576C25.3744 24.8212 25.5501 24.9969 25.5501 25.2136C25.5501 25.4304 25.3744 25.6061 25.1576 25.6061H16.3261C16.1092 25.6061 15.9336 25.4304 15.9336 25.2136C15.9336 24.9969 16.1092 24.8212 16.3261 24.8212Z" fill="#828282"/>
</svg>
